<?xml version="1.0" encoding="utf-8"?>
<!-- Generator: Adobe Illustrator 22.1.0, SVG Export Plug-In . SVG Version: 6.00 Build 0)  -->
<svg version="1.1" id="Layer_1" xmlns="http://www.w3.org/2000/svg" xmlns:xlink="http://www.w3.org/1999/xlink" x="0px" y="0px"
	 viewBox="0 0 140 140" style="enable-background:new 0 0 140 140;" xml:space="preserve">
<style type="text/css">
	.st0{stroke:#FFFFFF;stroke-miterlimit:10;}
</style>
<title>logo</title>
<desc>Created with Sketch.</desc>
<g id="Page-1">
	<g id="landing" transform="translate(-890.000000, -217.000000)">
		<g id="logo" transform="translate(739.000000, 217.000000)">
			<g transform="translate(151.000000, 0.000000)">
				<path id="Fill-1" class="st0" d="M89.2,47.4H78.7c-0.3,2.1-0.6,4.6-0.8,6.1c-0.7,5.4-1.4,9.9-1.9,13.5c-0.5,3.6-0.9,6.4-1.2,8.4
					c-0.3,2-0.5,3.6-0.6,4.6c-0.2,1-0.2,1.7-0.3,2c0,0.3,0,0.6,0,0.8c0,3.1,0.6,5.4,1.8,6.8c1.2,1.4,3.2,2.1,6,2.1
					c1.6,0,3.1-0.3,4.6-1c0.9-0.4,1.8-1,2.7-1.7l-1.9,13.6c-0.4,0.3-0.8,0.5-1.2,0.8c-1.6,1-3.3,1.8-5.2,2.3c-1.9,0.5-4,0.8-6.2,0.8
					c-5.7,0-10.1-1.6-13-4.9c-2.9-3.3-4.4-7.7-4.4-13.4c0-0.6,0-1.2,0.1-1.8c0-0.6,0.1-1.5,0.3-2.7c0.2-1.2,0.4-3,0.7-5.2
					c0.3-2.2,0.7-5.3,1.3-9.1c0.5-3.8,1.2-8.6,2-14.4c0.3-1.8,1-7.6,1-7.6c-1.9,0-3.6,0-4.9,0.1c-1.4,0.1-2.6,0.2-3.6,0.3
					c-1,0.1-1.9,0.3-2.7,0.5c-0.8,0.2-1.5,0.5-2.3,0.8V37.7c1.8-1.3,4.3-2.3,7.6-3c3.3-0.7,7.7-1.1,13.1-1.1h21.3L89.2,47.4z
					 M70.1,6C34.7,6,6,34.7,6,70.1c0,35.4,28.7,64.1,64.1,64.1c35.4,0,64.1-28.7,64.1-64.1C134.1,34.7,105.5,6,70.1,6z"/>
				<path id="Fill-3" class="st0" d="M69.8,136.7C33,136.7,3,106.7,3,69.8C3,33,33,3,69.8,3c36.9,0,66.9,30,66.9,66.9
					C136.7,106.7,106.7,136.7,69.8,136.7 M69.8,0C31.3,0,0,31.3,0,69.8c0,38.6,31.3,69.8,69.8,69.8s69.8-31.3,69.8-69.8
					C139.7,31.3,108.4,0,69.8,0"/>
			</g>
		</g>
	</g>
</g>
</svg>
